<?xml version="1.0" standalone="no"?>
<!DOCTYPE svg PUBLIC "-//W3C//DTD SVG 20010904//EN"
 "http://www.w3.org/TR/2001/REC-SVG-20010904/DTD/svg10.dtd">
<svg version="1.0" xmlns="http://www.w3.org/2000/svg"
 width="512.000000pt" height="512.000000pt" viewBox="0 0 512.000000 512.000000"
 preserveAspectRatio="xMidYMid meet">
<metadata>
Created by potrace 1.11, written by Peter Selinger 2001-2013
</metadata>
<g transform="translate(0.000000,512.000000) scale(0.100000,-0.100000)"
fill="#000000" stroke="none">
<path d="M2320 5098 c-18 -13 -43 -36 -54 -51 -21 -28 -21 -37 -22 -568 0
-296 -4 -542 -8 -546 -4 -4 -282 -8 -619 -8 -490 0 -617 -3 -636 -14 -35 -19
-69 -62 -77 -96 -9 -39 -9 -361 0 -409 9 -46 62 -101 107 -110 17 -3 301 -6
630 -6 472 0 599 -3 600 -12 0 -7 2 -724 3 -1593 1 -1251 4 -1585 14 -1605 7
-14 29 -37 49 -50 36 -24 41 -25 247 -28 241 -3 262 2 303 74 l22 39 1 1485
c0 817 0 1531 0 1587 l0 103 624 2 c612 3 625 3 653 24 15 11 37 38 48 60 19
36 20 57 20 240 -1 189 -2 202 -23 236 -13 21 -40 45 -65 57 -41 20 -58 20
-645 20 -332 -1 -605 1 -607 3 -3 2 -5 243 -5 536 -1 528 -1 531 -23 573 -39
73 -61 79 -298 79 -197 0 -207 -1 -239 -22z"/>
</g>
</svg>
